<svg width="61" height="61" viewBox="0 0 61 61" fill="none" xmlns="http://www.w3.org/2000/svg">
<rect opacity="0.1" x="0.827637" width="60.0566" height="60.0566" rx="30.0283" fill="#D9D9D9"/>
<g clip-path="url(#clip0_1_725)">
<path d="M41.3063 39.4198L41.3112 39.419V32.3142C41.3112 28.8385 40.5615 26.1611 36.4902 26.1611C34.533 26.1611 33.2196 27.2331 32.6834 28.2493H32.6268V26.4856H28.7666V39.419H32.7861V33.0149C32.7861 31.3287 33.1064 29.6982 35.1986 29.6982C37.2601 29.6982 37.2909 31.6225 37.2909 33.123V39.4198H41.3063Z" fill="white"/>
<path d="M22.2207 26.4863H26.2451V39.4197H22.2207V26.4863Z" fill="white"/>
<path d="M24.2312 20.0459C22.9445 20.0459 21.9004 21.088 21.9004 22.3722C21.9004 23.6564 22.9445 24.7203 24.2312 24.7203C25.5179 24.7203 26.5621 23.6564 26.5621 22.3722C26.5612 21.088 25.5171 20.0459 24.2312 20.0459Z" fill="white"/>
</g>
<defs>
<clipPath id="clip0_1_725">
<rect width="19.4101" height="19.4101" fill="white" transform="translate(21.9004 20.0195)"/>
</clipPath>
</defs>
</svg>
